<svg t="1711361816082" class="icon" viewBox="0 0 1024 1024" version="1.1" xmlns="http://www.w3.org/2000/svg" p-id="792" width="200" height="200"><path d="M531.2 9.6l406.4 233.6c12.8 6.4 19.2 19.2 19.2 32v470.4c0 12.8-6.4 25.6-19.2 32l-406.4 233.6c-12.8 6.4-25.6 6.4-35.2 0L86.4 777.6c-12.8-6.4-19.2-19.2-19.2-32V278.4c0-12.8 6.4-25.6 19.2-32L492.8 12.8c12.8-9.6 25.6-9.6 38.4-3.2zM512 83.2L140.8 297.6v428.8L512 940.8l371.2-214.4V297.6L512 83.2z" fill="#444444" p-id="793"></path><path d="M732.8 384c9.6 16 3.2 38.4-12.8 51.2l-172.8 99.2v198.4c0 19.2-16 35.2-35.2 35.2-19.2 0-35.2-16-35.2-35.2V534.4L304 435.2c-16-9.6-22.4-32-12.8-51.2 9.6-16 32-22.4 51.2-12.8l172.8 99.2L688 371.2c12.8-9.6 35.2-3.2 44.8 12.8z" fill="#288DFA" p-id="794"></path></svg>